<?xml version="1.0" encoding="UTF-8"?>
<svg id="Layer_1" xmlns="http://www.w3.org/2000/svg" version="1.1" viewBox="0 0 512 512">
  <!-- Generator: Adobe Illustrator 29.2.1, SVG Export Plug-In . SVG Version: 2.1.0 Build 116)  -->
  <defs>
    <style>
      .st0 {
        fill: #fff;
      }
    </style>
  </defs>
  <path class="st0" d="M382.4,287.6h-126.4c-17.4,0-31.6-14.1-31.6-31.6s14.1-31.6,31.6-31.6h218.9c-3.2-22.3-9.7-43.5-19-63.2h-199.9c-52.3,0-94.8,42.4-94.8,94.8s42.4,94.8,94.8,94.8h126.4c17.4,0,31.6,14.1,31.6,31.6s-14.1,31.6-31.6,31.6h-126.4c-87.2,0-158-70.7-158-158s70.7-158,158-158h154.8c-39.9-39.1-94.5-63.2-154.8-63.2-122.1,0-221.2,99-221.2,221.2s99,221.2,221.2,221.2h126.4c52.3,0,94.8-42.4,94.8-94.8s-42.4-94.8-94.8-94.8Z"/>
</svg>